<svg width="351" height="109" viewBox="0 0 351 109" fill="none" xmlns="http://www.w3.org/2000/svg">
    <defs>
        <linearGradient id="vague1" x1="175.5" y1="-2" x2="175.5" y2="108.083" gradientUnits="userSpaceOnUse">
            <stop stop-color="#DCE1D4"/>
            <stop offset="0.744792" stop-color="#DCE1D4" stop-opacity="0.930729"/>
            <stop offset="1" stop-color="#DCE1D4" stop-opacity="0.5"/>
        </linearGradient>
    </defs>
    <path d="M271.5 107.5C303.581 106.088 351 86.5 351 86.5V0.5H0V86.5C0 86.5 47.3673 106.628 79.5 108C117.694 109.631 136.772 86.6743 175 86.5C213.567 86.3242 232.97 109.196 271.5 107.5Z" fill="url(#vague1)">
        <animateTransform attributeName="transform"
                        type="translate" 
                        from="0"
                        to="-175"
                        dur="0.7s"
                        begin="0s"
                        repeatCount="indefinite"/>

    </path>
    <defs>
        <linearGradient id="vague1" x1="175.5" y1="-2" x2="175.5" y2="108.083" gradientUnits="userSpaceOnUse">
            <stop stop-color="#DCE1D4"/>
            <stop offset="0.744792" stop-color="#DCE1D4" stop-opacity="0.930729"/>
            <stop offset="1" stop-color="#DCE1D4" stop-opacity="0.5"/>
        </linearGradient>
    </defs>
    <path d="M271.5 107.5C303.581 106.088 351 86.5 351 86.5V0.5H0V86.5C0 86.5 47.3673 106.628 79.5 108C117.694 109.631 136.772 86.6743 175 86.5C213.567 86.3242 232.97 109.196 271.5 107.5Z" fill="url(#vague1)">
        <animateTransform attributeName="transform"
                        type="translate" 
                        from="0"
                        to="-175"
                        dur="0.7s"
                        begin="0.35s"
                        repeatCount="indefinite"/>

    </path>
    
   





    <!-- <path d="M271.5 107.5C303.581 106.088 351 86.5 351 86.5V0.5H0V86.5C0 86.5 47.3673 106.628 79.5 108C117.694 109.631 136.772 86.6743 175 86.5C213.567 86.3242 232.97 109.196 271.5 107.5Z" fill="url(#vague2)"/>
    <defs>
    <linearGradient id="vague2" x1="175.5" y1="-2" x2="175.5" y2="108.083" gradientUnits="userSpaceOnUse">
    <stop stop-color="#DCE1D4"/>
    <stop offset="0.744792" stop-color="#DCE1D4" stop-opacity="0.930729"/>
    <stop offset="1" stop-color="#DCE1D4" stop-opacity="0.5"/>
    </linearGradient>
    </defs>
    <animateTransform attributeName="transform"
                    type="translate" 
                    from="0"
                    to="-175"
                    dur="5s"
                    begin="0.5s"
                    repeatCount="indefinite"/> -->

</svg>
